<svg width="562" height="209" viewBox="0 0 562 209" fill="none" xmlns="http://www.w3.org/2000/svg">
<path fill-rule="evenodd" clip-rule="evenodd" d="M109.274 154.919C77.1802 155.145 45.8388 155.184 14.4282 155.442L14.525 180.215C36.877 180.442 166.259 180.442 176.223 180.442L176.373 19.4416L65.606 19.2905L65.322 31.8953C86.723 32.3303 96.4899 31.1269 107.805 44.2151C123.709 62.5992 105.77 82.305 105.433 84.2031C125.393 85.0244 142.544 98.6841 143.338 117.901C144.186 138.386 127.967 152.682 109.245 154.913L109.274 154.919Z" fill="#05BCA9"/>
<path fill-rule="evenodd" clip-rule="evenodd" d="M389.761 33.1305V182.729L536.032 182.68C537.737 182.68 537.746 182.682 537.742 181.525C519.765 166.591 493.136 140.348 474.602 124.516C470.378 120.915 465.414 117.01 461.6 113.161C454.741 106.238 451.145 104.163 446.827 99.6077C444.922 98.5972 438.582 91.0062 435.062 89.3666L434.878 133.897L420.815 133.688C419.564 128.763 417.774 39.0484 418.887 31.7325L390.993 31.8227C388.267 34.0174 391.678 29.6468 389.742 33.1413L389.761 33.1305Z" fill="#05BCA9"/>
<path fill-rule="evenodd" clip-rule="evenodd" d="M288.119 180.517C292.558 182.237 349.657 180.583 360.234 181.113L362.042 180.976L362.373 55.7918L288.052 55.762L288.119 180.517Z" fill="#DDDDDA"/>
<path fill-rule="evenodd" clip-rule="evenodd" d="M16.5522 19.98C15.9587 40.162 16.4276 61.0466 16.4276 81.282C16.4276 92.3515 15.0455 134.547 17.0674 142.07C34.1816 141.964 51.326 142.07 68.4402 142.07C88.0626 142.07 120.12 146.564 130.314 125.525C134.171 111.217 124.734 99.3826 113.402 95.173C109.83 93.6732 106.684 92.9971 103.553 92.6913C99.2101 92.2657 94.8936 92.5515 89.4989 92.3402L89.0944 81.3118C92.9914 78.0255 110.283 68.7716 99.5968 52.7437C92.2442 41.7044 81.6292 42.7808 65.6297 43.1018V125.656L51.9899 126.013V43.7091L33.7741 43.482V32.228L50.4542 31.8829L50.5016 19.3314L20.276 19.3322C20.276 19.3322 17.6677 18.255 16.5522 19.98Z" fill="#05BCA9"/>
<path fill-rule="evenodd" clip-rule="evenodd" d="M450 74C451.962 77.1498 455.869 80.4648 458.842 83.2616C474.182 97.5754 494.144 118.284 508.745 131.499C516.059 138.096 541.497 164.549 546.914 166.942L547.316 18.9421H497.473L450 74Z" fill="#05BCA9"/>
<path fill-rule="evenodd" clip-rule="evenodd" d="M200.296 55.52L200 180.966L271.641 181.269L271.997 56.0382L200.296 55.52Z" fill="#DDDDDA"/>
<path fill-rule="evenodd" clip-rule="evenodd" d="M200.497 20.4181L200.394 42.0797L362.373 42V21L200.525 19C200.525 20 200.525 19 200.497 20.4181Z" fill="#DDDDDA"/>
<path fill-rule="evenodd" clip-rule="evenodd" d="M435.824 75.8799C446.428 62.1225 454.559 51.1507 457.612 47.3009C461.849 41.2791 475.889 22.5333 478.788 18.8799L435.797 19.8169C435.797 42.17 435.747 79.4714 435.885 75.2525L435.824 75.8799Z" fill="#05BCA9"/>
<path fill-rule="evenodd" clip-rule="evenodd" d="M14.6338 19.3315H20.9195V142.063H14.6338V19.3315Z" fill="#05BCA9"/>
<path fill-rule="evenodd" clip-rule="evenodd" d="M385.883 19H421.883V181H385.883V19Z" fill="#05BCA9"/>
</svg>
